<mxfile host="app.diagrams.net" modified="2023-03-14T13:14:12.729Z" agent="5.0 (Macintosh; Intel Mac OS X 10_15_7) AppleWebKit/537.36 (KHTML, like Gecko) Chrome/110.0.0.0 Safari/537.36 Edg/110.0.1587.69" version="20.7.4" etag="pJPmOQjWquV5ynyT64dZ" type="github">
  <diagram id="B0Mq2AoxFHrrjvDQxuA7" name="Page-1">
    <mxGraphModel dx="954" dy="623" grid="1" gridSize="10" guides="1" tooltips="1" connect="1" arrows="1" fold="1" page="1" pageScale="1" pageWidth="850" pageHeight="1100" math="0" shadow="0">
      <root>
        <mxCell id="0" />
        <mxCell id="1" parent="0" />
        <mxCell id="XCA117xv-Ya6hoZgLsgM-3" value="" style="edgeStyle=orthogonalEdgeStyle;rounded=0;orthogonalLoop=1;jettySize=auto;html=1;" edge="1" parent="1" source="XCA117xv-Ya6hoZgLsgM-1" target="XCA117xv-Ya6hoZgLsgM-2">
          <mxGeometry relative="1" as="geometry" />
        </mxCell>
        <mxCell id="XCA117xv-Ya6hoZgLsgM-20" value="" style="edgeStyle=orthogonalEdgeStyle;rounded=0;orthogonalLoop=1;jettySize=auto;html=1;startArrow=classic;startFill=1;" edge="1" parent="1" source="XCA117xv-Ya6hoZgLsgM-1" target="XCA117xv-Ya6hoZgLsgM-19">
          <mxGeometry relative="1" as="geometry" />
        </mxCell>
        <mxCell id="XCA117xv-Ya6hoZgLsgM-1" value="Login" style="rounded=0;whiteSpace=wrap;html=1;" vertex="1" parent="1">
          <mxGeometry x="270" y="40" width="120" height="60" as="geometry" />
        </mxCell>
        <mxCell id="XCA117xv-Ya6hoZgLsgM-5" value="" style="edgeStyle=orthogonalEdgeStyle;rounded=0;orthogonalLoop=1;jettySize=auto;html=1;startArrow=classic;startFill=1;" edge="1" parent="1" source="XCA117xv-Ya6hoZgLsgM-2" target="XCA117xv-Ya6hoZgLsgM-4">
          <mxGeometry relative="1" as="geometry" />
        </mxCell>
        <mxCell id="XCA117xv-Ya6hoZgLsgM-7" value="" style="edgeStyle=orthogonalEdgeStyle;rounded=0;orthogonalLoop=1;jettySize=auto;html=1;" edge="1" parent="1" source="XCA117xv-Ya6hoZgLsgM-2" target="XCA117xv-Ya6hoZgLsgM-6">
          <mxGeometry relative="1" as="geometry" />
        </mxCell>
        <mxCell id="XCA117xv-Ya6hoZgLsgM-2" value="Home" style="rounded=0;whiteSpace=wrap;html=1;" vertex="1" parent="1">
          <mxGeometry x="270" y="180" width="120" height="60" as="geometry" />
        </mxCell>
        <mxCell id="XCA117xv-Ya6hoZgLsgM-4" value="Leaderboard" style="rounded=0;whiteSpace=wrap;html=1;" vertex="1" parent="1">
          <mxGeometry x="470" y="180" width="120" height="60" as="geometry" />
        </mxCell>
        <mxCell id="XCA117xv-Ya6hoZgLsgM-11" value="" style="edgeStyle=orthogonalEdgeStyle;rounded=0;orthogonalLoop=1;jettySize=auto;html=1;" edge="1" parent="1" source="XCA117xv-Ya6hoZgLsgM-6" target="XCA117xv-Ya6hoZgLsgM-9">
          <mxGeometry relative="1" as="geometry" />
        </mxCell>
        <mxCell id="XCA117xv-Ya6hoZgLsgM-6" value="start game" style="rhombus;whiteSpace=wrap;html=1;rounded=0;" vertex="1" parent="1">
          <mxGeometry x="290" y="260" width="80" height="80" as="geometry" />
        </mxCell>
        <mxCell id="XCA117xv-Ya6hoZgLsgM-13" value="" style="edgeStyle=orthogonalEdgeStyle;rounded=0;orthogonalLoop=1;jettySize=auto;html=1;" edge="1" parent="1" source="XCA117xv-Ya6hoZgLsgM-9" target="XCA117xv-Ya6hoZgLsgM-12">
          <mxGeometry relative="1" as="geometry" />
        </mxCell>
        <mxCell id="XCA117xv-Ya6hoZgLsgM-9" value="Select Category" style="whiteSpace=wrap;html=1;rounded=0;" vertex="1" parent="1">
          <mxGeometry x="270" y="360" width="120" height="60" as="geometry" />
        </mxCell>
        <mxCell id="XCA117xv-Ya6hoZgLsgM-12" value="Game Screen" style="whiteSpace=wrap;html=1;rounded=0;" vertex="1" parent="1">
          <mxGeometry x="270" y="440" width="120" height="60" as="geometry" />
        </mxCell>
        <mxCell id="XCA117xv-Ya6hoZgLsgM-16" value="" style="endArrow=none;html=1;rounded=0;exitX=0;exitY=0.5;exitDx=0;exitDy=0;" edge="1" parent="1" source="XCA117xv-Ya6hoZgLsgM-12">
          <mxGeometry width="50" height="50" relative="1" as="geometry">
            <mxPoint x="400" y="520" as="sourcePoint" />
            <mxPoint x="200" y="470" as="targetPoint" />
          </mxGeometry>
        </mxCell>
        <mxCell id="XCA117xv-Ya6hoZgLsgM-17" value="" style="endArrow=none;html=1;rounded=0;" edge="1" parent="1">
          <mxGeometry width="50" height="50" relative="1" as="geometry">
            <mxPoint x="200" y="470" as="sourcePoint" />
            <mxPoint x="200" y="210" as="targetPoint" />
          </mxGeometry>
        </mxCell>
        <mxCell id="XCA117xv-Ya6hoZgLsgM-18" value="" style="endArrow=classic;html=1;rounded=0;" edge="1" parent="1" target="XCA117xv-Ya6hoZgLsgM-2">
          <mxGeometry width="50" height="50" relative="1" as="geometry">
            <mxPoint x="200" y="210" as="sourcePoint" />
            <mxPoint x="450" y="470" as="targetPoint" />
          </mxGeometry>
        </mxCell>
        <mxCell id="XCA117xv-Ya6hoZgLsgM-23" value="" style="edgeStyle=orthogonalEdgeStyle;rounded=0;orthogonalLoop=1;jettySize=auto;html=1;" edge="1" parent="1" source="XCA117xv-Ya6hoZgLsgM-19">
          <mxGeometry relative="1" as="geometry">
            <mxPoint x="330" y="180" as="targetPoint" />
            <Array as="points">
              <mxPoint x="530" y="120" />
              <mxPoint x="420" y="120" />
              <mxPoint x="420" y="150" />
              <mxPoint x="330" y="150" />
              <mxPoint x="330" y="180" />
            </Array>
          </mxGeometry>
        </mxCell>
        <mxCell id="XCA117xv-Ya6hoZgLsgM-19" value="Register" style="rounded=0;whiteSpace=wrap;html=1;" vertex="1" parent="1">
          <mxGeometry x="470" y="40" width="120" height="60" as="geometry" />
        </mxCell>
        <mxCell id="XCA117xv-Ya6hoZgLsgM-24" value="end game" style="rhombus;whiteSpace=wrap;html=1;" vertex="1" parent="1">
          <mxGeometry x="160" y="310" width="80" height="80" as="geometry" />
        </mxCell>
        <mxCell id="XCA117xv-Ya6hoZgLsgM-26" value="" style="edgeStyle=orthogonalEdgeStyle;rounded=0;orthogonalLoop=1;jettySize=auto;html=1;startArrow=none;startFill=0;" edge="1" parent="1" source="XCA117xv-Ya6hoZgLsgM-25" target="XCA117xv-Ya6hoZgLsgM-1">
          <mxGeometry relative="1" as="geometry" />
        </mxCell>
        <mxCell id="XCA117xv-Ya6hoZgLsgM-25" value="Actor" style="shape=umlActor;verticalLabelPosition=bottom;verticalAlign=top;html=1;outlineConnect=0;" vertex="1" parent="1">
          <mxGeometry x="150" y="55" width="20" height="30" as="geometry" />
        </mxCell>
      </root>
    </mxGraphModel>
  </diagram>
</mxfile>
